{
	"asset":{
		"generator":"Khronos glTF Blender I/O v3.6.27",
		"version":"2.0"
	},
	"scene":0,
	"scenes":[
		{
			"name":"Scene",
			"nodes":[
				0
			]
		}
	],
	"nodes":[
		{
			"mesh":0,
			"name":"Sphere"
		}
	],
	"meshes":[
		{
			"name":"Sphere.001",
			"primitives":[
				{
					"attributes":{
						"POSITION":0,
						"NORMAL":1,
						"TEXCOORD_0":2
					},
					"indices":3
				}
			]
		}
	],
	"accessors":[
		{
			"bufferView":0,
			"componentType":5126,
			"count":1248,
			"max":[
				1,
				2,
				1
			],
			"min":[
				-1,
				-2,
				-1
			],
			"type":"VEC3"
		},
		{
			"bufferView":1,
			"componentType":5126,
			"count":1248,
			"type":"VEC3"
		},
		{
			"bufferView":2,
			"componentType":5126,
			"count":1248,
			"type":"VEC2"
		},
		{
			"bufferView":3,
			"componentType":5123,
			"count":6132,
			"type":"SCALAR"
		}
	],
	"bufferViews":[
		{
			"buffer":0,
			"byteLength":14976,
			"byteOffset":0,
			"target":34962
		},
		{
			"buffer":0,
			"byteLength":14976,
			"byteOffset":14976,
			"target":34962
		},
		{
			"buffer":0,
			"byteLength":9984,
			"byteOffset":29952,
			"target":34962
		},
		{
			"buffer":0,
			"byteLength":12264,
			"byteOffset":39936,
			"target":34963
		}
	],
	"buffers":[
		{
			"byteLength":52200,
			"uri":"capsule.bin"
		}
	]
}
